# xmcd
#
# Track frame offsets:
#	150
#	12969
#	34064
#	55382
#	75850
#	89477
#	100429
#	117719
#	133951
#	146853
#	156412
#	168855
#	174331
#	188347
#	195009
#	216341
#	237213
#	252638
#	288417
#	313426
#	342614
#
# Disc length: 4691 seconds
#
# Revision: 0
# Processed by: cddbd v1.4PL0 Copyright (c) Steve Scherf et al.
# Submitted via: EasyCDDAExtractor 5.0.5.1
#
DISCID=3a125115
DTITLE=Melvins - Houdini/Stoner Witch
DYEAR=1900
DGENRE=
TTITLE0=Hooch
TTITLE1=Night Goat
TTITLE2=Lizzy
TTITLE3=Goin' Blind
TTITLE4=Honey Bucket
TTITLE5=Hag Me
TTITLE6=Sky Pup
TTITLE7=Joan of Arc
TTITLE8=Teet
TTITLE9=Copache
TTITLE10=Pearl Bomb
TTITLE11=Skweetis
TTITLE12=Queen
TTITLE13=Sweet Willy Rollbar
TTITLE14=Revolve
TTITLE15=Goose Freight Train
TTITLE16=Roadbull
TTITLE17=At the Stake
TTITLE18=Magic Pig Detective
TTITLE19=Shevil
TTITLE20=June Bug
EXTD=
EXTT0=
EXTT1=
EXTT2=
EXTT3=
EXTT4=
EXTT5=
EXTT6=
EXTT7=
EXTT8=
EXTT9=
EXTT10=
EXTT11=
EXTT12=
EXTT13=
EXTT14=
EXTT15=
EXTT16=
EXTT17=
EXTT18=
EXTT19=
EXTT20=
PLAYORDER=
